<?xml version="1.0" standalone="no"?>
<!DOCTYPE svg PUBLIC "-//W3C//DTD SVG 20010904//EN"
 "http://www.w3.org/TR/2001/REC-SVG-20010904/DTD/svg10.dtd">
<svg version="1.0" xmlns="http://www.w3.org/2000/svg"
 width="96.000000pt" height="96.000000pt" viewBox="0 0 96.000000 96.000000"
 preserveAspectRatio="xMidYMid meet">
<metadata>
Created by potrace 1.14, written by Peter Selinger 2001-2017
</metadata>
<g transform="translate(0.000000,96.000000) scale(0.100000,-0.100000)"
fill="#000000" stroke="none">
<path d="M440 861 c-108 -35 -160 -106 -160 -219 0 -46 24 -108 50 -130 30
-25 107 -61 165 -77 72 -19 135 -45 153 -62 13 -12 16 -51 6 -78 -18 -46 -144
-60 -223 -25 -54 25 -83 58 -113 127 -24 54 -37 66 -39 36 -4 -58 0 -205 5
-210 3 -3 17 6 30 20 l24 26 71 -24 c124 -44 238 -29 305 39 48 48 65 94 62
168 -3 74 -30 125 -85 160 -42 26 -138 62 -196 72 -33 6 -83 34 -93 52 -27 49
24 100 105 103 85 3 158 -47 201 -136 9 -18 19 -33 22 -33 4 0 7 45 8 100 0
98 -7 120 -28 80 -13 -24 -30 -25 -89 -4 -54 18 -147 26 -181 15z"/>
</g>
</svg>
